<?xml version="1.0" encoding="utf-8"?>
<!-- Generator: Adobe Illustrator 21.1.0, SVG Export Plug-In . SVG Version: 6.00 Build 0)  -->
<svg version="1.1" id="Layer_1" xmlns="http://www.w3.org/2000/svg" xmlns:xlink="http://www.w3.org/1999/xlink" x="0px" y="0px"
	 viewBox="0 0 770.3 295.7" style="enable-background:new 0 0 770.3 295.7;" xml:space="preserve">
<style type="text/css">
	.st0{fill:#FFFFFF;}
</style>
<path class="st0" d="M120.4,216.2h-34l-5.8-38.8H39.3l-5.8,38.8H2.6L36.8,2.4h49.3L120.4,216.2z M43.6,148.4H76L59.8,40.3
	L43.6,148.4z"/>
<path class="st0" d="M233.6,136.5v28.4c0,17.3-4.2,30.6-12.7,39.8c-8.5,9.3-21,13.9-37.5,13.9c-16.5,0-29-4.6-37.5-13.9
	c-8.5-9.3-12.7-22.5-12.7-39.8V53.7c0-17.3,4.2-30.6,12.7-39.8c8.5-9.3,21-13.9,37.5-13.9c16.5,0,29,4.6,37.5,13.9
	c8.5,9.3,12.7,22.5,12.7,39.8v20.8h-31.8V51.6c0-7.7-1.6-13.2-4.7-16.3c-3.2-3.2-7.4-4.7-12.7-4.7c-5.3,0-9.5,1.6-12.7,4.7
	c-3.2,3.2-4.7,8.6-4.7,16.3V167c0,7.7,1.6,13.1,4.7,16.2c3.2,3.1,7.4,4.6,12.7,4.6c5.3,0,9.5-1.5,12.7-4.6c3.2-3.1,4.7-8.4,4.7-16.2
	v-30.5H233.6z"/>
<path class="st0" d="M287.7,216.2h-33.7V2.4h33.7V94H326V2.4h34.3v213.7H326v-91.6h-38.2V216.2z"/>
<path class="st0" d="M384.7,2.4h33.7v213.7h-33.7V2.4z"/>
<path class="st0" d="M476.5,92.5h46.2V123h-46.2v62.6h58.1v30.5h-91.8V2.4h91.8V33h-58.1V92.5z"/>
<path class="st0" d="M606.3,176.8L632,2.4h30.9l-33,213.7h-50.2l-33-213.7h34L606.3,176.8z"/>
<path class="st0" d="M712.1,92.5h46.2V123h-46.2v62.6h58.1v30.5h-91.8V2.4h91.8V33h-58.1V92.5z"/>
<polygon class="st0" points="3.5,278.3 770.3,263 770.3,293.6 "/>
</svg>
