<?xml version="1.0" encoding="utf-8"?>
<!-- Generator: Adobe Illustrator 21.1.0, SVG Export Plug-In . SVG Version: 6.00 Build 0)  -->
<svg version="1.1" id="Layer_1" xmlns="http://www.w3.org/2000/svg" xmlns:xlink="http://www.w3.org/1999/xlink" x="0px" y="0px"
	 viewBox="0 0 1567 21.9" style="enable-background:new 0 0 1567 21.9;" xml:space="preserve">
<style type="text/css">
	.st0{fill:#FFFFFF;}
</style>
<g>
	<path class="st0" d="M13.2,21.7H9.8l-0.6-3.9H5.1l-0.6,3.9H1.5L4.9,0.2h4.9L13.2,21.7z M5.6,14.9h3.2L7.2,4L5.6,14.9z"/>
	<path class="st0" d="M27.4,0c3.3,0,5,2,5,5.4v0.7h-3.2V5.2c0-1.5-0.6-2.1-1.7-2.1c-1.1,0-1.7,0.6-1.7,2.1c0,4.4,6.6,5.2,6.6,11.3
		c0,3.4-1.7,5.4-5,5.4c-3.3,0-5-2-5-5.4v-1.3h3.2v1.5c0,1.5,0.7,2.1,1.7,2.1c1.1,0,1.7-0.6,1.7-2.1c0-4.4-6.6-5.2-6.6-11.3
		C22.5,2,24.1,0,27.4,0z"/>
	<path class="st0" d="M47.1,0c3.3,0,5,2,5,5.4v0.7h-3.2V5.2c0-1.5-0.6-2.1-1.7-2.1s-1.7,0.6-1.7,2.1c0,4.4,6.6,5.2,6.6,11.3
		c0,3.4-1.7,5.4-5,5.4c-3.3,0-5-2-5-5.4v-1.3h3.2v1.5c0,1.5,0.7,2.1,1.7,2.1c1.1,0,1.7-0.6,1.7-2.1c0-4.4-6.6-5.2-6.6-11.3
		C42.1,2,43.8,0,47.1,0z"/>
	<path class="st0" d="M61.8,5.4C61.8,2,63.6,0,66.9,0C70.2,0,72,2,72,5.4v11.1c0,3.4-1.8,5.4-5.1,5.4c-3.3,0-5.1-2-5.1-5.4V5.4z
		 M65.2,16.7c0,1.5,0.7,2.1,1.7,2.1c1.1,0,1.7-0.6,1.7-2.1V5.2c0-1.5-0.7-2.1-1.7-2.1c-1.1,0-1.7,0.6-1.7,2.1V16.7z"/>
	<path class="st0" d="M91.9,13.7v2.8c0,3.4-1.7,5.4-5,5.4c-3.3,0-5-2-5-5.4V5.4c0-3.4,1.7-5.4,5-5.4c3.3,0,5,2,5,5.4v2.1h-3.2V5.2
		c0-1.5-0.7-2.1-1.7-2.1c-1.1,0-1.7,0.6-1.7,2.1v11.6c0,1.5,0.7,2.1,1.7,2.1c1.1,0,1.7-0.6,1.7-2.1v-3.1H91.9z"/>
	<path class="st0" d="M101.8,0.2h3.4v21.4h-3.4V0.2z"/>
	<path class="st0" d="M126.6,21.7h-3.4l-0.6-3.9h-4.1l-0.6,3.9h-3.1l3.4-21.4h4.9L126.6,21.7z M119,14.9h3.2L120.6,4L119,14.9z"/>
	<path class="st0" d="M134.4,0.2h10.4v3.1h-3.5v18.3h-3.4V3.3h-3.5V0.2z"/>
	<path class="st0" d="M154.5,0.2h3.4v21.4h-3.4V0.2z"/>
	<path class="st0" d="M167.9,5.4c0-3.4,1.8-5.4,5.1-5.4c3.3,0,5.1,2,5.1,5.4v11.1c0,3.4-1.8,5.4-5.1,5.4c-3.3,0-5.1-2-5.1-5.4V5.4z
		 M171.2,16.7c0,1.5,0.7,2.1,1.7,2.1c1.1,0,1.7-0.6,1.7-2.1V5.2c0-1.5-0.7-2.1-1.7-2.1c-1.1,0-1.7,0.6-1.7,2.1V16.7z"/>
	<path class="st0" d="M191.2,6.1v15.5h-3V0.2h4.2l3.5,12.8V0.2h3v21.4h-3.5L191.2,6.1z"/>
	<path class="st0" d="M213.7,0c3.3,0,5,2,5,5.4v0.7h-3.2V5.2c0-1.5-0.6-2.1-1.7-2.1s-1.7,0.6-1.7,2.1c0,4.4,6.6,5.2,6.6,11.3
		c0,3.4-1.7,5.4-5,5.4c-3.3,0-5-2-5-5.4v-1.3h3.2v1.5c0,1.5,0.7,2.1,1.7,2.1c1.1,0,1.7-0.6,1.7-2.1c0-4.4-6.6-5.2-6.6-11.3
		C208.8,2,210.4,0,213.7,0z"/>
	<path class="st0" d="M252.4,13.7v2.8c0,3.4-1.7,5.4-5,5.4c-3.3,0-5-2-5-5.4V5.4c0-3.4,1.7-5.4,5-5.4c3.3,0,5,2,5,5.4v2.1h-3.2V5.2
		c0-1.5-0.7-2.1-1.7-2.1s-1.7,0.6-1.7,2.1v11.6c0,1.5,0.7,2.1,1.7,2.1s1.7-0.6,1.7-2.1v-3.1H252.4z"/>
	<path class="st0" d="M262.2,5.4c0-3.4,1.8-5.4,5.1-5.4c3.3,0,5.1,2,5.1,5.4v11.1c0,3.4-1.8,5.4-5.1,5.4c-3.3,0-5.1-2-5.1-5.4V5.4z
		 M265.5,16.7c0,1.5,0.7,2.1,1.7,2.1c1.1,0,1.7-0.6,1.7-2.1V5.2c0-1.5-0.7-2.1-1.7-2.1c-1.1,0-1.7,0.6-1.7,2.1V16.7z"/>
	<path class="st0" d="M282.5,0.2h3.4v18.3h5.5v3.1h-8.9V0.2z"/>
	<path class="st0" d="M301,0.2h3.4v18.3h5.5v3.1H301V0.2z"/>
	<path class="st0" d="M330.9,21.7h-3.4l-0.6-3.9h-4.1l-0.6,3.9h-3.1l3.4-21.4h4.9L330.9,21.7z M323.2,14.9h3.2L324.8,4L323.2,14.9z"
		/>
	<path class="st0" d="M350.6,5.2v0.8c0,2.2-0.7,3.6-2.2,4.3c1.8,0.7,2.5,2.3,2.5,4.6v1.7c0,3.3-1.7,5.1-5.1,5.1h-5.3V0.2h5.1
		C349.1,0.2,350.6,1.9,350.6,5.2z M343.9,3.3V9h1.3c1.3,0,2-0.6,2-2.3V5.5c0-1.5-0.5-2.2-1.7-2.2H343.9z M343.9,12v6.6h1.9
		c1.1,0,1.7-0.5,1.7-2.1v-1.9c0-2-0.6-2.6-2.2-2.6H343.9z"/>
	<path class="st0" d="M360.8,5.4c0-3.4,1.8-5.4,5.1-5.4c3.3,0,5.1,2,5.1,5.4v11.1c0,3.4-1.8,5.4-5.1,5.4c-3.3,0-5.1-2-5.1-5.4V5.4z
		 M364.1,16.7c0,1.5,0.7,2.1,1.7,2.1c1.1,0,1.7-0.6,1.7-2.1V5.2c0-1.5-0.7-2.1-1.7-2.1c-1.1,0-1.7,0.6-1.7,2.1V16.7z"/>
	<path class="st0" d="M388.1,21.7c-0.2-0.6-0.3-0.9-0.3-2.6v-3.4c0-2-0.7-2.7-2.2-2.7h-1.2v8.7H381V0.2h5.1c3.5,0,5,1.6,5,4.9v1.7
		c0,2.2-0.7,3.6-2.2,4.3c1.7,0.7,2.2,2.3,2.2,4.6v3.3c0,1,0,1.8,0.4,2.6H388.1z M384.4,3.3v6.6h1.3c1.3,0,2-0.6,2-2.3V5.5
		c0-1.5-0.5-2.2-1.7-2.2H384.4z"/>
	<path class="st0" d="M412.7,21.7h-3.4l-0.6-3.9h-4.1l-0.6,3.9h-3.1l3.4-21.4h4.9L412.7,21.7z M405,14.9h3.2L406.6,4L405,14.9z"/>
	<path class="st0" d="M420.4,0.2h10.4v3.1h-3.5v18.3h-3.4V3.3h-3.5V0.2z"/>
	<path class="st0" d="M440.5,0.2h3.4v21.4h-3.4V0.2z"/>
	<path class="st0" d="M457.1,6.1v15.5h-3V0.2h4.2l3.5,12.8V0.2h3v21.4h-3.5L457.1,6.1z"/>
	<path class="st0" d="M480.1,9.7h4.7v6.8c0,3.4-1.7,5.4-5,5.4c-3.3,0-5-2-5-5.4V5.4c0-3.4,1.7-5.4,5-5.4c3.3,0,5,2,5,5.4v2.1h-3.2
		V5.2c0-1.5-0.7-2.1-1.7-2.1s-1.7,0.6-1.7,2.1v11.6c0,1.5,0.7,2.1,1.7,2.1s1.7-0.6,1.7-2.1v-3.9h-1.5V9.7z"/>
	<path class="st0" d="M508.7,5.4c0-3.4,1.8-5.4,5.1-5.4c3.3,0,5.1,2,5.1,5.4v11.1c0,3.4-1.8,5.4-5.1,5.4c-3.3,0-5.1-2-5.1-5.4V5.4z
		 M512,16.7c0,1.5,0.7,2.1,1.7,2.1c1.1,0,1.7-0.6,1.7-2.1V5.2c0-1.5-0.7-2.1-1.7-2.1c-1.1,0-1.7,0.6-1.7,2.1V16.7z"/>
	<path class="st0" d="M532,6.1v15.5h-3V0.2h4.2l3.5,12.8V0.2h3v21.4h-3.5L532,6.1z"/>
	<path class="st0" d="M567.4,21.7H564V0.2h3.4v9.2h3.8V0.2h3.4v21.4h-3.4v-9.2h-3.8V21.7z"/>
	<path class="st0" d="M588.2,9.3h4.6v3.1h-4.6v6.3h5.8v3.1h-9.2V0.2h9.2v3.1h-5.8V9.3z"/>
	<path class="st0" d="M614,5.5v2.8c0,3.4-1.7,5.3-5,5.3h-1.6v8H604V0.2h5C612.3,0.2,614,2.1,614,5.5z M607.3,3.3v7.2h1.6
		c1.1,0,1.7-0.5,1.7-2V5.3c0-1.5-0.6-2-1.7-2H607.3z"/>
	<path class="st0" d="M634,21.7h-3.4l-0.6-3.9h-4.1l-0.6,3.9h-3.1l3.4-21.4h4.9L634,21.7z M626.4,14.9h3.2L628,4L626.4,14.9z"/>
	<path class="st0" d="M641.8,0.2h10.4v3.1h-3.5v18.3h-3.4V3.3h-3.5V0.2z"/>
	<path class="st0" d="M661.8,0.2h3.4v21.4h-3.4V0.2z"/>
	<path class="st0" d="M674.8,0.2h10.4v3.1h-3.5v18.3h-3.4V3.3h-3.5V0.2z"/>
	<path class="st0" d="M694.9,0.2h3.4v21.4h-3.4V0.2z"/>
	<path class="st0" d="M713.2,0c3.3,0,5,2,5,5.4v0.7h-3.2V5.2c0-1.5-0.6-2.1-1.7-2.1c-1.1,0-1.7,0.6-1.7,2.1c0,4.4,6.6,5.2,6.6,11.3
		c0,3.4-1.7,5.4-5,5.4c-3.3,0-5-2-5-5.4v-1.3h3.2v1.5c0,1.5,0.7,2.1,1.7,2.1c1.1,0,1.7-0.6,1.7-2.1c0-4.4-6.6-5.2-6.6-11.3
		C708.2,2,709.9,0,713.2,0z"/>
	<path class="st0" d="M741.1,0.2h10.4v3.1H748v18.3h-3.4V3.3h-3.5V0.2z"/>
	<path class="st0" d="M760.9,5.4c0-3.4,1.8-5.4,5.1-5.4c3.3,0,5.1,2,5.1,5.4v11.1c0,3.4-1.8,5.4-5.1,5.4c-3.3,0-5.1-2-5.1-5.4V5.4z
		 M764.3,16.7c0,1.5,0.7,2.1,1.7,2.1s1.7-0.6,1.7-2.1V5.2c0-1.5-0.7-2.1-1.7-2.1s-1.7,0.6-1.7,2.1V16.7z"/>
	<path class="st0" d="M792.5,0.2h3.4v21.4h-3.4V0.2z"/>
	<path class="st0" d="M812.4,15.4l2.3-15.2h4.7v21.4h-3.2V6.3l-2.3,15.4h-3.2l-2.5-15.1v15.1h-2.9V0.2h4.7L812.4,15.4z"/>
	<path class="st0" d="M835.9,15.4l2.3-15.2h4.7v21.4h-3.2V6.3l-2.3,15.4h-3.2l-2.5-15.1v15.1h-2.9V0.2h4.7L835.9,15.4z"/>
	<path class="st0" d="M855.6,0.2v16.5c0,1.5,0.7,2.1,1.7,2.1s1.7-0.6,1.7-2.1V0.2h3.2v16.3c0,3.4-1.7,5.4-5,5.4c-3.3,0-5-2-5-5.4
		V0.2H855.6z"/>
	<path class="st0" d="M874.6,6.1v15.5h-3V0.2h4.2l3.5,12.8V0.2h3v21.4h-3.5L874.6,6.1z"/>
	<path class="st0" d="M891.6,0.2h3.4v21.4h-3.4V0.2z"/>
	<path class="st0" d="M913.9,0.2v3l-6.4,15.4h6.4v3.1H904v-3l6.4-15.4h-6.1V0.2H913.9z"/>
	<path class="st0" d="M926.3,9.2h4.6v3.1h-4.6v6.3h5.8v3.1h-9.2V0.2h9.2v3.1h-5.8V9.2z"/>
	<path class="st0" d="M965.4,21.6H962l-0.6-3.9h-4.1l-0.6,3.9h-3.1l3.4-21.4h4.9L965.4,21.6z M957.7,14.8h3.2L959.4,4L957.7,14.8z"
		/>
	<path class="st0" d="M977.3,6.1v15.5h-3V0.2h4.2L982,13V0.2h3v21.4h-3.5L977.3,6.1z"/>
	<path class="st0" d="M994.3,0.2h5.3c3.4,0,5,1.9,5,5.3v10.8c0,3.4-1.7,5.3-5,5.3h-5.3V0.2z M997.7,3.3v15.3h1.9
		c1.1,0,1.7-0.6,1.7-2.1V5.4c0-1.5-0.6-2.1-1.7-2.1H997.7z"/>
	<path class="st0" d="M1030.5,9.2h4.6v3.1h-4.6v6.3h5.8v3.1h-9.2V0.2h9.2v3.1h-5.8V9.2z"/>
	<path class="st0" d="M1045.5,0.2h3.4v18.3h5.5v3.1h-8.9V0.2z"/>
	<path class="st0" d="M1063.2,0.2h3.4v21.4h-3.4V0.2z"/>
	<path class="st0" d="M1083.1,15.4l2.3-15.2h4.7v21.4h-3.2V6.3l-2.3,15.4h-3.2l-2.5-15.1v15.1h-2.9V0.2h4.7L1083.1,15.4z"/>
	<path class="st0" d="M1099.5,0.2h3.4v21.4h-3.4V0.2z"/>
	<path class="st0" d="M1115.2,6.1v15.5h-3V0.2h4.2l3.5,12.8V0.2h3v21.4h-3.5L1115.2,6.1z"/>
	<path class="st0" d="M1143.5,21.6h-3.4l-0.6-3.9h-4.1l-0.6,3.9h-3.1l3.4-21.4h4.9L1143.5,21.6z M1135.8,14.8h3.2L1137.4,4
		L1135.8,14.8z"/>
	<path class="st0" d="M1150.4,0.2h10.4v3.1h-3.5v18.3h-3.4V3.3h-3.5V0.2z"/>
	<path class="st0" d="M1173,9.2h4.6v3.1h-4.6v6.3h5.8v3.1h-9.2V0.2h9.2v3.1h-5.8V9.2z"/>
	<path class="st0" d="M1200.3,0.2h10.4v3.1h-3.5v18.3h-3.4V3.3h-3.5V0.2z"/>
	<path class="st0" d="M1222.8,21.6h-3.4V0.2h3.4v9.2h3.8V0.2h3.4v21.4h-3.4v-9.2h-3.8V21.6z"/>
	<path class="st0" d="M1242.8,9.2h4.6v3.1h-4.6v6.3h5.8v3.1h-9.2V0.2h9.2v3.1h-5.8V9.2z"/>
	<path class="st0" d="M1276.2,17.7l2.6-17.5h3.1l-3.3,21.4h-5l-3.3-21.4h3.4L1276.2,17.7z"/>
	<path class="st0" d="M1290.7,0.2h3.4v21.4h-3.4V0.2z"/>
	<path class="st0" d="M1310.5,21.6c-0.2-0.6-0.3-0.9-0.3-2.6v-3.4c0-2-0.7-2.7-2.2-2.7h-1.2v8.7h-3.4V0.2h5.1c3.5,0,5,1.6,5,4.9v1.7
		c0,2.2-0.7,3.6-2.2,4.3c1.7,0.7,2.2,2.3,2.2,4.6V19c0,1,0,1.8,0.4,2.6H1310.5z M1306.8,3.3v6.6h1.3c1.3,0,2-0.6,2-2.3V5.5
		c0-1.5-0.5-2.2-1.7-2.2H1306.8z"/>
	<path class="st0" d="M1326,0.2v16.5c0,1.5,0.7,2.1,1.7,2.1c1.1,0,1.7-0.6,1.7-2.1V0.2h3.2v16.3c0,3.4-1.7,5.4-5,5.4
		c-3.3,0-5-2-5-5.4V0.2H1326z"/>
	<path class="st0" d="M1346.7,0c3.3,0,5,2,5,5.4V6h-3.2V5.2c0-1.5-0.6-2.1-1.7-2.1s-1.7,0.6-1.7,2.1c0,4.4,6.6,5.2,6.6,11.3
		c0,3.4-1.7,5.4-5,5.4c-3.3,0-5-2-5-5.4v-1.3h3.2v1.5c0,1.5,0.7,2.1,1.7,2.1c1.1,0,1.7-0.6,1.7-2.1c0-4.4-6.6-5.2-6.6-11.3
		C1341.7,1.9,1343.4,0,1346.7,0z"/>
	<path class="st0" d="M1364.1,9.2h4.6v3.1h-4.6v6.3h5.8v3.1h-9.2V0.2h9.2v3.1h-5.8V9.2z"/>
	<path class="st0" d="M1383.8,0c3.3,0,5,2,5,5.4V6h-3.2V5.2c0-1.5-0.6-2.1-1.7-2.1c-1.1,0-1.7,0.6-1.7,2.1c0,4.4,6.6,5.2,6.6,11.3
		c0,3.4-1.7,5.4-5,5.4c-3.3,0-5-2-5-5.4v-1.3h3.2v1.5c0,1.5,0.7,2.1,1.7,2.1c1.1,0,1.7-0.6,1.7-2.1c0-4.4-6.6-5.2-6.6-11.3
		C1378.8,1.9,1380.5,0,1383.8,0z"/>
	<path class="st0" d="M1411,0.2h3.4v21.4h-3.4V0.2z"/>
	<path class="st0" d="M1426.8,6.1v15.5h-3V0.2h4.2l3.5,12.8V0.2h3v21.4h-3.5L1426.8,6.1z"/>
	<path class="st0" d="M1460.6,9.2h4.6v3.1h-4.6v6.3h5.8v3.1h-9.2V0.2h9.2v3.1h-5.8V9.2z"/>
	<path class="st0" d="M1478.8,0.2v16.5c0,1.5,0.7,2.1,1.7,2.1c1.1,0,1.7-0.6,1.7-2.1V0.2h3.2v16.3c0,3.4-1.7,5.4-5,5.4
		c-3.3,0-5-2-5-5.4V0.2H1478.8z"/>
	<path class="st0" d="M1501.8,21.6c-0.2-0.6-0.3-0.9-0.3-2.6v-3.4c0-2-0.7-2.7-2.2-2.7h-1.2v8.7h-3.4V0.2h5.1c3.5,0,5,1.6,5,4.9v1.7
		c0,2.2-0.7,3.6-2.2,4.3c1.7,0.7,2.2,2.3,2.2,4.6V19c0,1,0,1.8,0.4,2.6H1501.8z M1498.1,3.3v6.6h1.3c1.3,0,2-0.6,2-2.3V5.5
		c0-1.5-0.5-2.2-1.7-2.2H1498.1z"/>
	<path class="st0" d="M1513.9,5.4c0-3.4,1.8-5.4,5.1-5.4c3.3,0,5.1,2,5.1,5.4v11.1c0,3.4-1.8,5.4-5.1,5.4c-3.3,0-5.1-2-5.1-5.4V5.4z
		 M1517.3,16.7c0,1.5,0.7,2.1,1.7,2.1c1.1,0,1.7-0.6,1.7-2.1V5.2c0-1.5-0.7-2.1-1.7-2.1c-1.1,0-1.7,0.6-1.7,2.1V16.7z"/>
	<path class="st0" d="M1543.3,5.5v2.8c0,3.4-1.7,5.3-5,5.3h-1.6v8h-3.4V0.2h5C1541.7,0.2,1543.3,2.1,1543.3,5.5z M1536.7,3.3v7.2
		h1.6c1.1,0,1.7-0.5,1.7-2V5.3c0-1.5-0.6-2-1.7-2H1536.7z"/>
	<path class="st0" d="M1555.6,9.2h4.6v3.1h-4.6v6.3h5.8v3.1h-9.2V0.2h9.2v3.1h-5.8V9.2z"/>
</g>
</svg>
